<svg width="18" height="15" viewBox="0 0 18 15" fill="none" xmlns="http://www.w3.org/2000/svg">
<path d="M16.1878 0.604054L9.34374 7.44815L1.89559 -7.03946e-07L0.687483 1.20811L8.73969 9.26031C8.9004 9.42102 9.11653 9.50969 9.34374 9.50969C9.57095 9.50969 9.78708 9.42102 9.94779 9.26031L18 1.20811L16.7919 -5.28081e-08L16.1878 0.604054Z" fill="white"/>
<path d="M16.1878 5.75803L9.34374 12.6021L1.89559 5.15398L0.687483 6.36209L8.73969 14.4143C8.9004 14.575 9.11653 14.6637 9.34374 14.6637C9.57095 14.6637 9.78708 14.575 9.94779 14.4143L18 6.35655L16.7919 5.14844L16.1878 5.75249L16.1878 5.75803Z" fill="white"/>
</svg>
