<svg width="12" height="18" viewBox="0 0 12 18" fill="none" xmlns="http://www.w3.org/2000/svg">
<path d="M11.2189 5.94232V5.25004C11.218 4.25194 10.817 3.29501 10.1041 2.58925C9.39124 1.88349 8.42464 1.48656 7.41646 1.48558H6.71719V0H5.2166V1.48558H4.51733C3.61496 1.48653 2.74235 1.80515 2.05546 2.38449C1.36857 2.96382 0.912178 3.76611 0.767854 4.64795C0.62353 5.52979 0.800685 6.4337 1.26765 7.19812C1.73462 7.96254 2.46097 8.53764 3.31686 8.82063L5.2166 9.44829V14.8558H4.51733C3.90701 14.8552 3.32186 14.6149 2.8903 14.1877C2.45874 13.7604 2.21603 13.1811 2.21543 12.5769V11.8846H0.714844V12.5769C0.715837 13.575 1.11677 14.5319 1.82966 15.2377C2.54255 15.9435 3.50915 16.3404 4.51733 16.3414H5.2166V17.827H6.71719V16.3414H7.41646C8.31882 16.3404 9.19143 16.0218 9.87832 15.4425C10.5652 14.8631 11.0216 14.0608 11.1659 13.179C11.3103 12.2972 11.1331 11.3933 10.6661 10.6288C10.1992 9.86442 9.47282 9.28932 8.61693 9.00633L6.71719 8.37867V2.97116H7.41646C8.02678 2.97175 8.61193 3.21203 9.04349 3.63928C9.47505 4.06652 9.71776 4.64582 9.71836 5.25004V5.94232H11.2189ZM8.14274 10.4147C8.66139 10.5856 9.10169 10.9336 9.38483 11.3965C9.66797 11.8594 9.77548 12.4069 9.68812 12.9411C9.60076 13.4753 9.32423 13.9613 8.90802 14.3121C8.49181 14.6629 7.96308 14.8556 7.41646 14.8558H6.71719V9.94373L8.14274 10.4147ZM5.2166 7.88323L3.79104 7.4123C3.2724 7.24141 2.8321 6.89337 2.54896 6.43047C2.26582 5.96757 2.15831 5.42003 2.24567 4.88583C2.33303 4.35163 2.60956 3.86564 3.02577 3.51484C3.44198 3.16404 3.97071 2.97131 4.51733 2.97116H5.2166V7.88323Z" fill="black"/>
</svg>
