<svg width="18" height="18" viewBox="0 0 18 18" fill="none" xmlns="http://www.w3.org/2000/svg">
<path d="M10.5073 4.14923L0.617661 13.9414C0.211317 14.3728 -0.0100028 14.9435 0.000347327 15.5332C0.0106975 16.1229 0.251909 16.6857 0.673144 17.1028C1.09438 17.5199 1.66274 17.7588 2.25843 17.7692C2.85412 17.7796 3.43062 17.5606 3.86643 17.1585L13.7583 7.36773L10.5073 4.14923ZM11.6365 7.36773L9.69621 9.28859L8.57077 8.17069L10.511 6.24984L11.6365 7.36773ZM2.80552 16.1096C2.65384 16.2528 2.45234 16.3326 2.2428 16.3326C2.03325 16.3326 1.83175 16.2528 1.68008 16.1096C1.53108 15.9618 1.44741 15.7614 1.44741 15.5525C1.44741 15.3437 1.53108 15.1433 1.68008 14.9954L7.5091 9.22397L8.63829 10.3419L2.80552 16.1096ZM15.9484 10.8655L17.9494 11.8564L15.9484 12.8503L14.9483 14.8276L13.9481 12.8503L11.9471 11.8564L13.9481 10.8655L14.9483 8.88525L15.9484 10.8655ZM4.9446 3.9613L2.94357 2.97116L4.9446 1.98102L5.94474 0L6.94488 1.98102L8.94591 2.97116L6.94488 3.9613L5.94474 5.94232L4.9446 3.9613ZM14.4478 3.4666L12.6974 2.59977L14.4478 1.73293L15.3234 0L16.199 1.73293L17.9494 2.59977L16.199 3.4666L15.3234 5.19953L14.4478 3.4666Z" fill="black"/>
</svg>
