<svg width="16" height="18" viewBox="0 0 16 18" fill="none" xmlns="http://www.w3.org/2000/svg">
<path d="M4.23584 8.91348H11.7388V10.3991H4.23584V8.91348ZM4.23584 13.3702H9.48789V11.8846H4.23584V13.3702ZM15.4902 5.6348V17.827H0.484375V2.22837C0.484375 1.63737 0.72152 1.07057 1.14364 0.652674C1.56576 0.234774 2.13828 0 2.73525 0L9.79851 0L15.4902 5.6348ZM10.2382 5.19953H12.9287L10.2382 2.53589V5.19953ZM13.9896 16.3414V6.68511H8.7376V1.48558H2.73525C2.53626 1.48558 2.34542 1.56384 2.20472 1.70314C2.06401 1.84244 1.98496 2.03137 1.98496 2.22837V16.3414H13.9896Z" fill="black"/>
</svg>
