<svg width="219" height="19" viewBox="0 0 219 19" fill="none" xmlns="http://www.w3.org/2000/svg">
<g clip-path="url(#clip0_1172_4969)">
<path d="M9.15502 0C8.70059 0 8.26833 0.182879 7.94691 0.49876L0.49876 7.94691C-0.166253 8.61192 -0.166253 9.69257 0.49876 10.3631L7.94691 17.8113C8.27942 18.1438 8.71722 18.31 9.15502 18.31C9.59282 18.31 10.0306 18.1438 10.3631 17.8113L17.8113 10.3631C18.4763 9.69811 18.4763 8.61747 17.8113 7.94691L10.3631 0.49876C10.0417 0.177337 9.60944 0 9.15502 0ZM9.15502 1.70687L16.6032 9.15502L9.15502 16.6032L1.70687 9.15502L9.15502 1.70687Z" fill="white"/>
<path d="M15.2837 2.31021L22.1278 9.15431L14.6797 16.6025L15.8878 17.8106L23.94 9.75836C24.1007 9.59765 24.1894 9.38152 24.1894 9.15431C24.1894 8.92709 24.1007 8.71096 23.94 8.55025L15.8878 0.498047L14.6797 1.70615L15.2837 2.31021Z" fill="white"/>
<path d="M20.4377 2.31021L27.2818 9.15431L19.8337 16.6025L21.0418 17.8106L29.094 9.75836C29.2547 9.59765 29.3434 9.38152 29.3434 9.15431C29.3434 8.92709 29.2547 8.71096 29.094 8.55025L21.0362 0.498047L19.8281 1.70615L20.4322 2.31021H20.4377Z" fill="white"/>
<path d="M181.91 9.18367C181.866 9.03404 181.805 8.90658 181.721 8.78466C181.644 8.66828 181.55 8.56853 181.439 8.4854C181.328 8.40228 181.201 8.34132 181.062 8.29698C180.918 8.25265 180.763 8.23048 180.596 8.23048C180.297 8.23048 180.031 8.30807 179.793 8.4577C179.56 8.60732 179.372 8.82899 179.239 9.12271C179.106 9.41642 179.039 9.7711 179.039 10.1867C179.039 10.6024 179.106 10.9681 179.239 11.2563C179.372 11.55 179.555 11.7717 179.793 11.9213C180.031 12.0709 180.303 12.1485 180.619 12.1485C180.901 12.1485 181.151 12.0931 181.356 11.9823C181.566 11.8714 181.727 11.7163 181.838 11.5168C181.949 11.3173 182.01 11.079 182.01 10.8074L182.237 10.8407H180.718V10.0482H182.985V10.7187C182.985 11.1953 182.885 11.611 182.68 11.9601C182.475 12.3092 182.198 12.5752 181.838 12.7637C181.483 12.9521 181.073 13.0463 180.608 13.0463C180.092 13.0463 179.643 12.9299 179.255 12.6972C178.867 12.4644 178.563 12.1374 178.346 11.7052C178.13 11.2785 178.02 10.7686 178.02 10.1812C178.02 9.7323 178.086 9.32775 178.213 8.97308C178.341 8.61841 178.524 8.31915 178.751 8.06977C178.984 7.82039 179.255 7.63197 179.566 7.50451C179.876 7.37705 180.214 7.31055 180.58 7.31055C180.89 7.31055 181.178 7.35488 181.444 7.44355C181.71 7.53222 181.949 7.65968 182.159 7.82593C182.37 7.99219 182.542 8.18615 182.675 8.41336C182.808 8.64057 182.896 8.88995 182.941 9.16704H181.91V9.18367Z" fill="white"/>
<path d="M185.124 12.9846H184.043L186.01 7.39844H187.257L189.225 12.9846H188.144L186.653 8.54004H186.609L185.118 12.9846H185.124ZM185.157 10.7955H188.105V11.6102H185.157V10.7955Z" fill="white"/>
<path d="M189.662 8.24633V7.39844H194.117V8.24633H192.388V12.9846H191.385V8.24633H189.656H189.662Z" fill="white"/>
<path d="M195.594 12.9846V7.39844H199.229V8.24633H196.608V9.76478H199.041V10.6127H196.608V12.1367H199.251V12.9846H195.594Z" fill="white"/>
<path d="M202.048 12.9846L200.469 7.39844H201.555L202.564 11.5049H202.613L203.689 7.39844H204.681L205.761 11.5104H205.811L206.82 7.39844H207.906L206.326 12.9846H205.329L204.209 9.06097H204.165L203.046 12.9846H202.048Z" fill="white"/>
<path d="M209.42 12.9846H208.34L210.307 7.39844H211.56L213.527 12.9846H212.446L210.956 8.54004H210.911L209.42 12.9846ZM209.454 10.7955H212.402V11.6102H209.454V10.7955Z" fill="white"/>
<path d="M213.926 7.39844H215.067L216.436 9.87007H216.492L217.86 7.39844H219.002L216.968 10.9008V12.9846H215.96V10.9008L213.926 7.39844Z" fill="white"/>
<path opacity="0.4" d="M170.072 3.69141H169.219V16.6869H170.072V3.69141Z" fill="white"/>
<path d="M42.7978 16.5598V3.24288H39.4062V1.61914H48.0514V3.24288H44.6599V16.5598H42.8034H42.7978Z" fill="white"/>
<path d="M53.466 15.0025V3.18192H51.543V1.61914H57.2399V3.17638H55.3169V15.0025H57.2399V16.5598H51.543V15.0025H53.466Z" fill="white"/>
<path d="M63.6299 1.61914V14.9416H68.3903V16.5653H61.7734V1.61914H63.6299Z" fill="white"/>
<path d="M79.3142 1.61914V3.17638H74.044V8.06977H78.7822V9.62701H74.044V15.0081H79.3142V16.5653H72.1875V1.61914H79.3142Z" fill="white"/>
<path d="M100.26 15.795C99.7005 16.3049 98.7695 16.5653 97.4728 16.5653H93.0781V1.61914H97.2178C98.498 1.61914 99.4678 1.8796 100.122 2.40053C100.776 2.92146 101.103 3.76935 101.103 4.94975V13.1904C101.103 14.4151 100.82 15.2796 100.26 15.795ZM98.8194 3.64189C98.5368 3.3648 98.1599 3.22626 97.6889 3.22626H94.9346V14.9637H97.6667C98.2098 14.9637 98.6033 14.8418 98.8637 14.5924C99.1187 14.3431 99.2461 13.9496 99.2461 13.4065V4.76133C99.2461 4.29028 99.102 3.91898 98.8194 3.64189Z" fill="white"/>
<path d="M106.829 15.0025V3.18192H104.906V1.61914H110.603V3.17638H108.68V15.0025H110.603V16.5598H104.906V15.0025H106.829Z" fill="white"/>
<path d="M116.028 10.3752V16.5653H114.172V1.61914H118.184C119.392 1.61914 120.307 1.88515 120.927 2.41716C121.548 2.94917 121.858 3.79152 121.858 4.94421V6.99467C121.858 8.60178 121.215 9.60484 119.935 10.0039L122.9 16.5542H120.872L118.118 10.3641H116.028V10.3752ZM119.625 3.58647C119.376 3.34263 118.982 3.22626 118.439 3.22626H116.028V8.77358H118.439C118.977 8.77358 119.376 8.65166 119.625 8.40228C119.874 8.1529 119.996 7.75943 119.996 7.21634V4.76133C119.996 4.21824 119.874 3.83031 119.625 3.58647Z" fill="white"/>
<path d="M132.674 1.61914V3.17638H127.403V8.06977H132.142V9.62701H127.403V15.0081H132.674V16.5653H125.547V1.61914H132.674Z" fill="white"/>
<path d="M137.336 15.6565C136.676 15.0524 136.344 14.1436 136.344 12.9355V5.24901C136.344 4.0409 136.676 3.13205 137.336 2.52799C137.995 1.92394 138.948 1.61914 140.184 1.61914H143.216V3.24288H139.974C139.447 3.24288 139.02 3.39805 138.693 3.71393C138.367 4.02427 138.2 4.40666 138.2 4.84446V13.34C138.2 13.7833 138.361 14.1602 138.693 14.4705C139.02 14.7809 139.447 14.9416 139.974 14.9416H143.216V16.5653H140.184C138.948 16.5653 137.995 16.2605 137.336 15.6565Z" fill="white"/>
<path d="M149.509 16.5598V3.24288H146.117V1.61914H154.762V3.24288H151.371V16.5598H149.514H149.509Z" fill="white"/>
</g>
<defs>
<clipPath id="clip0_1172_4969">
<rect width="219" height="18.31" fill="white"/>
</clipPath>
</defs>
</svg>
