<svg width="18" height="17" viewBox="0 0 18 17" fill="none" xmlns="http://www.w3.org/2000/svg">
<path d="M1.18921 3.71321L0 2.53588L1.06091 1.48558L2.25088 2.6629C2.39371 2.79811 2.58372 2.87357 2.78134 2.87357C2.97896 2.87357 3.16896 2.79811 3.31179 2.6629L6.00234 0L7.06326 1.05031L4.37271 3.71321C4.16369 3.92017 3.91554 4.08434 3.64242 4.19635C3.36931 4.30836 3.07658 4.36601 2.78096 4.36601C2.48534 4.36601 2.19261 4.30836 1.9195 4.19635C1.64638 4.08434 1.39823 3.92017 1.18921 3.71321ZM8.78368 3.62333H17.7872V2.13775H8.78368V3.62333ZM2.78134 10.3084C3.07704 10.3093 3.36996 10.252 3.64313 10.1399C3.9163 10.0278 4.16429 9.86319 4.37271 9.65553L7.06326 6.99262L6.00234 5.94232L3.31179 8.60522C3.16896 8.74043 2.97896 8.81589 2.78134 8.81589C2.58372 8.81589 2.39371 8.74043 2.25088 8.60522L1.06091 7.4279L0 8.4782L1.18921 9.65553C1.39782 9.86315 1.64595 10.0278 1.91923 10.1398C2.19251 10.2519 2.48553 10.3092 2.78134 10.3084ZM8.78368 9.56565H17.7872V8.08007H8.78368V9.56565ZM2.78134 16.2508C3.07704 16.2516 3.36996 16.1943 3.64313 16.0822C3.9163 15.9702 4.16429 15.8055 4.37271 15.5978L7.06326 12.9349L6.00234 11.8846L3.31179 14.5475C3.16896 14.6828 2.97896 14.7582 2.78134 14.7582C2.58372 14.7582 2.39371 14.6828 2.25088 14.5475L1.06091 13.3702L0 14.4205L1.18921 15.5978C1.39782 15.8055 1.64595 15.9701 1.91923 16.0821C2.19251 16.1942 2.48553 16.2515 2.78134 16.2508ZM8.78368 15.508H17.7872V14.0224H8.78368V15.508Z" fill="black"/>
</svg>
