<svg width="19" height="18" viewBox="0 0 19 18" fill="none" xmlns="http://www.w3.org/2000/svg">
<path d="M17.2991 0.787404C16.7864 0.283196 16.0916 0 15.3671 0C14.6426 0 13.9477 0.283196 13.4351 0.787404L0 14.0209V17.827H3.86402L17.2991 4.59346C17.8108 4.08838 18.0982 3.40398 18.0982 2.69043C18.0982 1.97689 17.8108 1.29248 17.2991 0.787404ZM3.24264 16.3414H1.5082V14.633L11.5453 4.7539L13.2797 6.46232L3.24264 16.3414ZM16.2328 3.54315L14.3423 5.40533L12.6116 3.69691L14.5014 1.83771C14.7314 1.61116 15.0433 1.48388 15.3686 1.48388C15.6939 1.48388 16.0058 1.61116 16.2358 1.83771C16.4658 2.06426 16.595 2.37153 16.595 2.69192C16.595 3.01231 16.4658 3.31958 16.2358 3.54613L16.2328 3.54315Z" fill="black"/>
</svg>
