<svg width="19" height="18" viewBox="0 0 19 18" fill="none" xmlns="http://www.w3.org/2000/svg">
<g clip-path="url(#clip0_1173_4982)">
<path d="M6.75176 8.91348C7.64212 8.91348 8.51249 8.6521 9.2528 8.16239C9.99311 7.67267 10.5701 6.97663 10.9108 6.16226C11.2516 5.3479 11.3407 4.4518 11.167 3.58728C10.9933 2.72275 10.5646 1.92864 9.93498 1.30535C9.3054 0.682065 8.50326 0.257601 7.63001 0.085637C6.75675 -0.0863273 5.8516 0.00193104 5.02901 0.339251C4.20642 0.676571 3.50334 1.2478 3.00868 1.98071C2.51402 2.71362 2.25 3.57528 2.25 4.45674C2.25119 5.63838 2.72587 6.77129 3.56985 7.60683C4.41384 8.44238 5.55818 8.9123 6.75176 8.91348ZM6.75176 1.48558C7.34533 1.48558 7.92558 1.65984 8.41912 1.98631C8.91266 2.31279 9.29733 2.77682 9.52448 3.31973C9.75163 3.86264 9.81106 4.46004 9.69526 5.03639C9.57946 5.61274 9.29363 6.14215 8.87391 6.55767C8.45419 6.97319 7.91943 7.25617 7.33726 7.37081C6.75509 7.48546 6.15165 7.42662 5.60326 7.20174C5.05487 6.97686 4.58615 6.59603 4.25637 6.10743C3.9266 5.61882 3.75059 5.04438 3.75059 4.45674C3.75059 3.66874 4.06678 2.91302 4.62961 2.35581C5.19244 1.79861 5.9558 1.48558 6.75176 1.48558Z" fill="black"/>
<path d="M15.7554 7.42758V5.19922H14.2548V7.42758H12.0039V8.91316H14.2548V11.1415H15.7554V8.91316H18.0062V7.42758H15.7554Z" fill="black"/>
<path d="M9.78607 10.4004H3.7192C2.73317 10.4016 1.78787 10.7899 1.09064 11.4801C0.393417 12.1704 0.00119134 13.1062 0 14.0824L0 17.8283H1.50059V14.0824C1.50118 13.5001 1.73512 12.9417 2.15106 12.5299C2.567 12.1182 3.13097 11.8866 3.7192 11.886H9.78607C10.3743 11.8866 10.9383 12.1182 11.3542 12.5299C11.7702 12.9417 12.0041 13.5001 12.0047 14.0824V17.8283H13.5053V14.0824C13.5041 13.1062 13.1119 12.1704 12.4146 11.4801C11.7174 10.7899 10.7721 10.4016 9.78607 10.4004Z" fill="black"/>
</g>
<defs>
<clipPath id="clip0_1173_4982">
<rect width="18.007" height="17.827" fill="white"/>
</clipPath>
</defs>
</svg>
